<svg width="32" height="40" viewBox="0 0 32 40" fill="none" xmlns="http://www.w3.org/2000/svg">
<path d="M17.5531 26.8174C17.5531 26.3024 17.1311 26.0034 16.5901 25.8064C16.3211 25.7084 16.0281 25.6384 15.7521 25.5794C15.6631 25.5604 15.5751 25.5414 15.4901 25.5244C15.3151 25.4884 15.1551 25.4564 15.0241 25.4214C13.3941 24.9954 12.2651 24.5314 11.4021 23.6674C11.0071 23.2734 10.7341 22.6944 10.5581 22.0564C10.3831 21.4184 10.3051 20.7174 10.3051 20.0744C10.3051 19.6454 10.3441 18.3234 11.0041 16.2264L11.0051 16.2254L15.1481 4.14941L24.2561 27.6564L24.2621 27.6734L24.2531 27.6904C23.4111 29.1144 22.2731 30.1734 21.4161 30.9544L21.3751 30.9924L21.3541 30.9404C20.6521 29.1994 17.6271 21.4234 15.2081 15.2034C14.5411 13.4884 13.9201 11.8924 13.4071 10.5744C12.8021 12.2094 11.6551 15.4254 11.3121 16.6744C10.7701 18.6494 10.6931 19.2664 10.6931 20.0744C10.7321 21.0434 10.8101 22.3094 11.6531 23.3434C12.1131 23.8604 12.6781 24.2154 13.5071 24.5334C14.2341 24.8124 15.1611 25.0614 16.3941 25.3664L16.9421 25.5004L16.9431 25.5014C17.4391 25.6344 17.7671 25.9524 17.9701 26.3094C18.1721 26.6664 18.2511 27.0634 18.2511 27.3604C18.2511 28.0724 18.0751 28.6364 17.7801 29.0804C17.4851 29.5254 17.0741 29.8474 16.6061 30.0804C15.6731 30.5464 14.5121 30.6544 13.6001 30.6544C13.5161 30.6544 13.4291 30.6544 13.3381 30.6544H13.3361C12.6901 30.6524 11.8771 30.6504 11.0601 30.7284C10.1271 30.8174 9.19406 31.0104 8.50406 31.4244C7.63906 31.9434 6.68306 32.9554 5.94406 34.0764C5.20406 35.1984 4.68605 36.4204 4.68605 37.3584C4.68605 38.8604 5.50105 39.3914 5.97305 39.4904L5.96405 39.5674H0.112061V39.5284V39.4894C0.440061 39.4894 0.83206 39.3324 1.25206 39.0664C1.67106 38.8014 2.11306 38.4314 2.54106 38.0134C3.37006 37.2034 4.13905 36.2174 4.57205 35.4734L4.61305 35.4014C7.13605 30.8594 9.62306 29.4984 10.6361 28.9534C11.6281 28.4194 12.8511 27.8324 14.2151 27.6704C14.6251 27.6214 15.0411 27.6214 15.4341 27.6284C15.5091 27.6304 15.5841 27.6314 15.6571 27.6334C15.9671 27.6404 16.2571 27.6464 16.5141 27.6314C16.8321 27.6124 17.0921 27.5594 17.2721 27.4364C17.4481 27.3174 17.5531 27.1274 17.5531 26.8174Z" fill="#332929"/>
<path d="M26.582 33.3157C27.605 35.8867 28.462 37.4337 29.122 38.3357C29.452 38.7867 29.732 39.0767 29.958 39.2527C30.185 39.4297 30.353 39.4887 30.46 39.4887V39.5287V39.5677H23.032L23.114 39.4987C23.288 39.3517 23.407 39.0817 23.479 38.7387C23.552 38.3967 23.577 37.9897 23.57 37.5767C23.556 36.7507 23.41 35.9137 23.258 35.5517L23.243 35.5167L23.278 35.5007C24.376 34.9987 25.585 34.1797 26.519 33.3017L26.561 33.2617L26.582 33.3157Z" fill="#332929"/>
<path d="M0 0V0.0390015V0.0780029C1.698 0.0780029 2.75599 1.29299 3.39099 2.82899C4.00599 4.31699 4.218 6.095 4.224 7.323V28.14L6.744 24.621V7.44099C6.744 4.67299 7.53699 2.911 8.59799 1.841C9.65999 0.770003 10.997 0.388 12.093 0.388C14.742 0.388 18.647 1.109 21.888 3.677C25.128 6.244 27.711 10.659 27.711 18.059C27.711 25.458 25.116 30.026 21.873 32.737C18.629 35.448 14.734 36.305 12.132 36.273L12.131 36.312V36.351C12.133 36.351 12.134 36.351 12.136 36.351C15.339 36.427 20.131 35.621 24.124 32.914C28.122 30.204 31.317 25.59 31.317 18.059C31.317 10.528 28.258 6.01101 24.323 3.37801C20.39 0.746006 15.585 0 12.093 0H0Z" fill="#332929"/>
</svg>
