<svg width="29" height="28" viewBox="0 0 29 28" fill="none" xmlns="http://www.w3.org/2000/svg">
<path d="M14.363 0C14.4056 0.00826851 14.4071 0.00726755 14.454 0.0221567C15.0833 0.22144 18.2328 6.39772 18.7682 7.38361C18.3575 8.7463 17.8191 9.99967 17.5052 11.4077C17.115 13.1573 16.9962 16.1553 16.3302 17.6132C16.0353 18.2568 15.2271 18.9232 14.7254 19.4358C14.6212 19.4321 14.5127 19.4206 14.4159 19.3774C13.6721 19.0449 13.0091 18.2877 12.682 17.564C11.994 16.0388 11.928 14.1202 11.6039 12.4736C11.2661 10.7578 10.792 9.13383 10.1992 7.48999C11.0393 4.93087 12.9768 2.30143 14.363 0Z" fill="#85817A" fill-opacity="0.8"/>
<path d="M24.5802 8.07227C25.6598 8.07992 26.6764 8.54366 27.6504 8.95664C27.8793 9.22736 28.1066 9.50336 28.3003 9.801C28.6699 10.3668 29.0777 11.0519 28.9325 11.7509C28.2665 12.899 24.8075 12.3637 23.5079 12.7412C21.9236 13.2011 20.8469 14.1929 20.0606 15.6235C19.7232 16.5846 19.2113 17.5577 18.7301 18.4578L18.5468 18.4326C18.4368 18.2831 18.3605 18.1226 18.3194 17.9415C17.7957 15.6649 18.2857 13.0188 19.5325 11.0589C20.7735 9.10921 22.4341 8.55204 24.5802 8.07227Z" fill="#85817A" fill-opacity="0.8"/>
<path d="M3.43161 8.06024C4.31058 7.96461 5.46196 8.28138 6.26847 8.63154C8.0782 9.41719 9.41265 11.0537 10.1301 12.8669C10.7294 14.3814 11.0045 16.924 10.3566 18.4369L10.1068 18.3941C9.67699 17.9866 9.49905 17.3023 9.29354 16.7575C8.34283 14.8479 6.89411 12.7998 4.62069 12.5135C3.83384 12.4143 3.04655 12.5386 2.25911 12.57C1.69772 12.5922 1.0228 12.6159 0.508352 12.3659C0.250762 12.2407 0.170374 12.0922 0.0832396 11.8283C-0.0995376 11.2747 0.0383529 10.4806 0.305918 9.97333C0.925981 8.79779 2.2619 8.42718 3.43161 8.06024Z" fill="#85817A" fill-opacity="0.8"/>
<path d="M14.3882 20.7832C14.664 20.9361 14.7593 21.1081 14.9016 21.3872C15.5661 22.6894 16.1309 24.9982 15.6527 26.4204C15.4678 26.9705 15.148 27.1074 14.6625 27.3468C14.4058 27.3008 14.1256 27.2588 13.8806 27.1638C13.6019 27.0554 13.4185 26.8111 13.2997 26.5451C12.5941 24.9667 13.8263 22.2798 14.3882 20.7832Z" fill="#85817A" fill-opacity="0.8"/>
<path d="M16.0469 20.7383C16.1114 20.7461 16.1774 20.7568 16.242 20.7704C17.4038 21.024 19.1157 21.7648 19.7582 22.8039C20.0501 23.275 19.9841 23.6009 19.8608 24.1231C19.453 24.2811 19.1098 24.4004 18.68 24.2522C17.3011 23.7767 16.6234 21.9462 16.0469 20.7383Z" fill="#85817A" fill-opacity="0.8"/>
<path d="M11.9426 21.1451C12.2213 21.1404 12.3138 21.1141 12.5411 21.2731C12.5309 21.4743 12.4839 21.6629 12.3886 21.8404C11.8571 22.8336 10.6501 23.9115 9.58091 24.2283C9.46546 24.1879 9.35148 24.1421 9.24381 24.0835C8.92959 23.9127 8.70823 23.6753 8.61171 23.3283C8.56712 23.1677 8.64898 22.922 8.73215 22.7832C9.26728 21.89 10.9776 21.3624 11.9426 21.1451Z" fill="#85817A" fill-opacity="0.8"/>
</svg>
